<mxfile host="app.diagrams.net" modified="2024-01-07T10:54:10.972Z" agent="5.0 (Macintosh; Intel Mac OS X 10_15_7) AppleWebKit/537.36 (KHTML, like Gecko) Chrome/120.0.0.0 Safari/537.36" version="20.6.0" etag="PEN9xxD7VtG9b_Y-iwyC" type="github">
  <diagram id="genaLXRJu2ML_f10ttWc" name="第 1 页">
    <mxGraphModel dx="946" dy="638" grid="1" gridSize="10" guides="1" tooltips="1" connect="1" arrows="1" fold="1" page="1" pageScale="1" pageWidth="827" pageHeight="1169" math="0" shadow="0">
      <root>
        <mxCell id="0" />
        <mxCell id="1" parent="0" />
        <mxCell id="BzouLdgTRDmwFUgms64l-1" value="Hello world" style="rounded=0;whiteSpace=wrap;html=1;" vertex="1" parent="1">
          <mxGeometry x="220" y="110" width="120" height="60" as="geometry" />
        </mxCell>
      </root>
    </mxGraphModel>
  </diagram>
</mxfile>
